<svg width="485" height="512" viewBox="0 0 485 512" fill="none" xmlns="http://www.w3.org/2000/svg">
<path d="M474.798 492H452.865V173.536C452.865 158.713 440.805 146.654 425.983 146.654H376.959C362.136 146.654 350.077 158.714 350.077 173.536V492H294.385V317.825C294.385 303.002 282.326 290.943 267.503 290.943H218.479C203.656 290.943 191.597 303.003 191.597 317.825V492H135.905V401.796C135.905 386.973 123.845 374.914 109.023 374.914H59.998C45.175 374.914 33.116 386.974 33.116 401.796V492H10C4.477 492 0 496.477 0 502C0 507.523 4.477 512 10 512H474.798C480.321 512 484.798 507.523 484.798 502C484.798 496.477 480.321 492 474.798 492ZM115.903 492H53.115V401.796C53.115 398.001 56.202 394.914 59.997 394.914H109.021C112.816 394.914 115.903 398.001 115.903 401.796V492ZM274.384 492H211.596V317.825C211.596 314.03 214.683 310.943 218.478 310.943H267.502C271.296 310.943 274.384 314.03 274.384 317.825V492ZM432.865 492H370.077V173.536C370.077 169.741 373.164 166.654 376.959 166.654H425.983C429.778 166.654 432.865 169.741 432.865 173.536V492Z" fill="url(#paint0_linear)"/>
<path d="M452.841 10.516C452.981 7.787 452.021 5.012 449.937 2.928C447.853 0.844 445.078 -0.117 442.349 0.024C442.188 0.017 442.029 0 441.865 0H381.365C375.842 0 371.365 4.477 371.365 10C371.365 15.523 375.842 20 381.365 20H418.722L319.865 118.858L282.585 81.578C280.71 79.703 278.166 78.649 275.514 78.649C272.862 78.649 270.318 79.703 268.443 81.578L88.674 261.348C84.769 265.253 84.769 271.585 88.674 275.491C90.627 277.442 93.186 278.418 95.745 278.418C98.304 278.418 100.864 277.442 102.816 275.489L275.514 102.79L312.794 140.07C316.699 143.975 323.031 143.975 326.937 140.07L432.865 34.143V67.953C432.865 73.476 437.342 77.953 442.865 77.953C448.388 77.953 452.865 73.476 452.865 67.953V11C452.865 10.837 452.848 10.678 452.841 10.516Z" fill="url(#paint1_linear)"/>
<defs>
<linearGradient id="paint0_linear" x1="242.399" y1="146.654" x2="242.399" y2="512" gradientUnits="userSpaceOnUse">
<stop stop-color="#F23869"/>
<stop offset="1" stop-color="#3F46BF"/>
</linearGradient>
<linearGradient id="paint1_linear" x1="269.305" y1="0" x2="269.305" y2="278.418" gradientUnits="userSpaceOnUse">
<stop stop-color="#F23869"/>
<stop offset="1" stop-color="#3F46BF"/>
</linearGradient>
</defs>
</svg>
