<svg width="512" height="512" viewBox="0 0 512 512" fill="none" xmlns="http://www.w3.org/2000/svg">
<path d="M491.019 5.61674C470.974 -5.95855 445.251 0.93562 433.68 20.9811L376.467 120.079H253.08C247.557 120.079 243.08 124.557 243.08 130.079C243.08 135.601 247.557 140.079 253.08 140.079H364.919L323.4 211.993H90.0043C84.4811 211.993 80.004 216.471 80.004 221.993C80.004 227.516 84.4811 231.993 90.0043 231.993H311.852L288.757 271.995H90.0043C84.4811 271.995 80.004 276.473 80.004 281.995C80.004 287.517 84.4811 291.995 90.0043 291.995H284.621L280.312 331.996H90.0043C84.4811 331.996 80.004 336.474 80.004 341.996C80.004 347.518 84.4811 351.997 90.0043 351.997H278.157L277.625 356.936C277.201 360.872 279.139 364.688 282.567 366.667C284.12 367.564 285.845 368.007 287.566 368.007C289.645 368.007 291.717 367.36 293.466 366.082L357.319 319.436C358.444 318.614 359.384 317.567 360.08 316.361L438.011 181.382V375.214C438.011 397.621 419.782 415.851 397.374 415.851H165.617C162.044 415.851 158.743 417.757 156.957 420.851L121.989 481.418L87.0212 420.851C85.2352 417.757 81.9341 415.851 78.361 415.851H60.6375C38.23 415.851 20.0005 397.621 20.0005 375.214V180.716C20.0005 158.31 38.23 140.079 60.6375 140.079H163.079C168.602 140.079 173.079 135.601 173.079 130.079C173.079 124.556 168.602 120.079 163.079 120.079H60.6375C27.2017 120.079 0 147.28 0 180.716V375.214C0 408.65 27.2017 435.852 60.6375 435.852H72.5868L113.329 506.418C115.115 509.513 118.416 511.419 121.989 511.419C125.562 511.419 128.863 509.513 130.649 506.418L171.391 435.852H397.375C430.811 435.852 458.013 408.65 458.013 375.214V180.716C458.013 172.144 456.195 163.676 452.717 155.912L506.385 62.9572C517.957 42.9127 511.065 17.19 491.019 5.61674V5.61674ZM481.019 22.9372C491.513 28.9963 495.122 42.4627 489.062 52.9569L483.348 62.8542L445.286 40.8786L451 30.9814C457.06 20.4881 470.525 16.881 481.019 22.9372V22.9372ZM304.336 295.723L333.122 312.344L299.934 336.589L304.336 295.723ZM347.76 297.7L309.698 275.725L435.286 58.1991L473.348 80.1746L347.76 297.7Z" fill="url(#paint0_linear)"/>
<path d="M208.075 140.08C210.705 140.08 213.285 139.01 215.155 137.15C217.015 135.29 218.085 132.71 218.085 130.08C218.085 127.45 217.015 124.87 215.155 123.01C213.285 121.151 210.715 120.08 208.075 120.08C205.445 120.08 202.865 121.15 201.005 123.01C199.145 124.87 198.085 127.45 198.085 130.08C198.085 132.71 199.144 135.29 201.005 137.15C202.875 139.01 205.445 140.08 208.075 140.08Z" fill="url(#paint1_linear)"/>
<defs>
<linearGradient id="paint0_linear" x1="256" y1="0" x2="256" y2="511.419" gradientUnits="userSpaceOnUse">
<stop stop-color="#F23869"/>
<stop offset="1" stop-color="#3F46BF"/>
</linearGradient>
<linearGradient id="paint1_linear" x1="208.085" y1="120.08" x2="208.085" y2="140.08" gradientUnits="userSpaceOnUse">
<stop stop-color="#F23869"/>
<stop offset="1" stop-color="#3F46BF"/>
</linearGradient>
</defs>
</svg>
