<svg width="346" height="512" viewBox="0 0 346 512" fill="none" xmlns="http://www.w3.org/2000/svg">
<path d="M345.554 453.067V503.468C345.554 508.18 341.733 512 337.021 512C332.309 512 328.489 508.18 328.489 503.468V453.067C328.489 413.824 296.733 382.066 257.487 382.067C238.918 382.067 222.07 372.607 212.417 356.761C209.966 352.737 211.241 347.486 215.266 345.035C219.29 342.583 224.539 343.859 226.991 347.884C233.52 358.603 244.92 365.003 257.487 365.003C306.16 365.001 345.554 404.389 345.554 453.067V453.067ZM196.66 367.539C197.664 372.143 194.745 376.689 190.14 377.692C167.686 382.584 144.848 377.687 126.665 365.276C108.664 384.566 84.8827 382.067 88.0663 382.067C48.8235 382.066 17.0644 413.821 17.0644 453.067V503.468C17.0644 508.18 13.2441 512 8.53221 512C3.8203 512 0 508.18 0 503.468V453.067C0 404.395 39.3858 365.003 88.0642 365.003C107.754 365.003 123.717 349.138 123.717 329.443V327.195C86.4751 309.388 60.3345 271.966 58.7411 228.389C43.4151 224.704 31.9958 210.987 31.9958 194.666V150.433C31.5297 128.783 34.7442 74.5576 74.2815 36.4463C123.102 -10.6152 201.393 -7.62577 258.962 20.0879C264.573 22.7916 265.425 30.3724 260.766 34.2983C289.93 41.4121 315.079 59.3404 331.235 84.9989C332.069 86.3203 333.597 88.3947 333.198 91.7041C332.95 93.7636 332.337 95.5063 330.75 97.1167C320.352 107.663 314.625 121.637 314.625 136.467V194.668C314.625 199.38 310.805 203.2 306.093 203.2C301.381 203.2 297.561 199.38 297.561 194.668V136.467C297.561 119.363 303.404 103.129 314.137 90.0873C297.779 66.6919 272.257 51.6454 243.392 48.5546L228.396 46.9484C219.627 46.0099 217.906 33.9293 226.056 30.5751L232.876 27.7669C144.049 -3.19969 49.0592 31.2075 49.0592 150.341V194.666C49.0592 201.436 52.9584 207.32 58.6579 210.275V154.962C58.6579 122.03 85.4512 95.2365 118.383 95.2365H227.169C260.101 95.2365 286.895 122.028 286.895 154.959V224.819C286.895 299.022 214.384 355.384 140.599 333.662C140.119 339.749 138.604 345.624 136.135 351.084C150.488 360.941 168.614 364.917 186.507 361.018C191.111 360.016 195.656 362.935 196.66 367.539V367.539ZM172.776 321.225C226.292 321.225 269.83 277.687 269.83 224.171V154.959C269.83 131.438 250.692 112.301 227.169 112.301H118.383C94.8601 112.301 75.7223 131.439 75.7223 154.962V224.171C75.7223 277.687 119.26 321.225 172.776 321.225ZM259.165 468.272H233.568C228.856 468.272 225.036 472.093 225.036 476.804C225.036 481.516 228.856 485.337 233.568 485.337H259.165C263.877 485.337 267.697 481.516 267.697 476.804C267.697 472.093 263.877 468.272 259.165 468.272Z" fill="url(#paint0_linear)"/>
<defs>
<linearGradient id="paint0_linear" x1="172.777" y1="0" x2="172.777" y2="512" gradientUnits="userSpaceOnUse">
<stop stop-color="#F23869"/>
<stop offset="1" stop-color="#3F46BF"/>
</linearGradient>
</defs>
</svg>
