<svg width="478" height="342" viewBox="0 0 478 342" fill="none" xmlns="http://www.w3.org/2000/svg">
<path d="M426.667 0H51.2C22.923 0 0 22.923 0 51.2V290.133C0 318.41 22.923 341.333 51.2 341.333H426.667C454.944 341.333 477.867 318.41 477.867 290.133V51.2C477.867 22.923 454.944 0 426.667 0ZM443.733 290.133C443.733 299.559 436.092 307.2 426.666 307.2H51.2C41.774 307.2 34.133 299.559 34.133 290.133V280.132L102.4 211.865L158.601 268.066C165.265 274.729 176.069 274.729 182.733 268.066L324.267 126.532L443.734 245.999V290.133H443.733ZM443.733 197.734L336.333 90.334C329.669 83.671 318.865 83.671 312.201 90.334L170.667 231.867L114.466 175.666C107.802 169.003 96.998 169.003 90.334 175.666L34.133 231.867V51.2C34.133 41.774 41.774 34.133 51.2 34.133H426.667C436.093 34.133 443.734 41.774 443.734 51.2V197.734H443.733Z" fill="url(#paint0_linear)"/>
<path d="M153.6 68.2666C125.323 68.2666 102.4 91.1896 102.4 119.467C102.4 147.744 125.323 170.667 153.6 170.667C181.877 170.667 204.8 147.744 204.8 119.467C204.8 91.1896 181.877 68.2666 153.6 68.2666ZM153.6 136.534C144.174 136.534 136.533 128.893 136.533 119.467C136.533 110.041 144.174 102.4 153.6 102.4C163.026 102.4 170.667 110.041 170.667 119.467C170.667 128.893 163.026 136.534 153.6 136.534Z" fill="url(#paint1_linear)"/>
<defs>
<linearGradient id="paint0_linear" x1="238.934" y1="0" x2="238.934" y2="341.333" gradientUnits="userSpaceOnUse">
<stop stop-color="#F23869"/>
<stop offset="1" stop-color="#1C3661"/>
</linearGradient>
<linearGradient id="paint1_linear" x1="153.6" y1="68.2666" x2="153.6" y2="170.667" gradientUnits="userSpaceOnUse">
<stop stop-color="#F23869"/>
<stop offset="1" stop-color="#1C3661"/>
</linearGradient>
</defs>
</svg>
