<svg width="1437" height="539" viewBox="0 0 1437 539" fill="none" xmlns="http://www.w3.org/2000/svg">
<path fill-rule="evenodd" clip-rule="evenodd" d="M0 0H1437V469.673H0V0Z" fill="white"/>
<path fill-rule="evenodd" clip-rule="evenodd" d="M1437 338.764V538.625H0V338.764L0.31578 269.812C36.3677 269.812 54.6929 273.832 72.4155 277.722C89.9993 281.58 108.183 285.572 143.95 285.572C179.715 285.572 197.898 281.58 215.484 277.722C233.207 273.832 251.533 269.812 287.584 269.812C323.634 269.812 341.961 273.832 359.681 277.722C377.267 281.58 395.447 285.572 431.213 285.572C466.98 285.572 485.166 281.58 502.75 277.722C520.472 273.832 538.798 269.812 574.852 269.812C610.9 269.812 629.227 273.832 646.947 277.722C664.53 281.58 682.713 285.572 718.478 285.572C754.242 285.572 772.426 281.58 790.012 277.722C807.733 273.832 826.058 269.812 862.109 269.812C898.161 269.812 916.486 273.832 934.21 277.722C951.797 281.58 969.982 285.572 1005.75 285.572C1041.51 285.572 1059.7 281.58 1077.28 277.722C1095 273.832 1113.33 269.812 1149.38 269.812C1185.43 269.812 1203.77 273.832 1221.49 277.722C1239.08 281.58 1257.26 285.572 1293.03 285.572C1328.8 285.572 1346.99 281.58 1364.58 277.722C1382.3 273.832 1400.63 269.812 1436.68 269.812L1436.99 338.764H1437Z" fill="#AD37A1"/>
</svg>
